<mxfile host="app.diagrams.net" modified="2023-10-23T07:25:10.999Z" agent="Mozilla/5.0 (X11; Linux x86_64) AppleWebKit/537.36 (KHTML, like Gecko) Chrome/118.0.0.0 Safari/537.36" etag="6SkJJmnrijG2abc1p-Z2" version="22.0.6" type="github">
  <diagram name="Page-1" id="mm1-0BpxnrbdSzO1788i">
    <mxGraphModel dx="1003" dy="532" grid="1" gridSize="10" guides="1" tooltips="1" connect="1" arrows="1" fold="1" page="1" pageScale="1" pageWidth="1600" pageHeight="1100" math="0" shadow="0">
      <root>
        <mxCell id="0" />
        <mxCell id="1" parent="0" />
        <object label="" PC="PC" id="_NSQsEMBnyyuoNphyygk-1">
          <mxCell style="verticalLabelPosition=bottom;verticalAlign=top;html=1;shape=mxgraph.basic.rect;fillColor2=none;strokeWidth=1;size=20;indent=0;" vertex="1" parent="1">
            <mxGeometry x="40" y="310" width="30" height="70" as="geometry" />
          </mxCell>
        </object>
        <mxCell id="_NSQsEMBnyyuoNphyygk-7" value="PC" style="text;html=1;strokeColor=none;fillColor=none;align=center;verticalAlign=middle;whiteSpace=wrap;rounded=0;" vertex="1" parent="1">
          <mxGeometry x="25" y="320" width="60" height="30" as="geometry" />
        </mxCell>
        <object label="" PC="PC" id="_NSQsEMBnyyuoNphyygk-8">
          <mxCell style="verticalLabelPosition=bottom;verticalAlign=top;html=1;shape=mxgraph.basic.rect;fillColor2=none;strokeWidth=1;size=20;indent=0;" vertex="1" parent="1">
            <mxGeometry x="130" y="350" width="70" height="130" as="geometry" />
          </mxCell>
        </object>
        <mxCell id="_NSQsEMBnyyuoNphyygk-9" value="IMEM" style="text;html=1;strokeColor=none;fillColor=none;align=center;verticalAlign=middle;whiteSpace=wrap;rounded=0;" vertex="1" parent="1">
          <mxGeometry x="120" y="360" width="60" height="30" as="geometry" />
        </mxCell>
        <object label="" PC="PC" id="_NSQsEMBnyyuoNphyygk-10">
          <mxCell style="verticalLabelPosition=bottom;verticalAlign=top;html=1;shape=mxgraph.basic.rect;fillColor2=none;strokeWidth=1;size=20;indent=0;" vertex="1" parent="1">
            <mxGeometry x="260" y="240" width="20" height="280" as="geometry" />
          </mxCell>
        </object>
        <mxCell id="_NSQsEMBnyyuoNphyygk-11" value="IF/ID" style="text;html=1;strokeColor=none;fillColor=none;align=center;verticalAlign=middle;whiteSpace=wrap;rounded=0;" vertex="1" parent="1">
          <mxGeometry x="240" y="210" width="60" height="30" as="geometry" />
        </mxCell>
        <object label="" PC="PC" id="_NSQsEMBnyyuoNphyygk-12">
          <mxCell style="verticalLabelPosition=bottom;verticalAlign=top;html=1;shape=mxgraph.basic.rect;fillColor2=none;strokeWidth=1;size=20;indent=0;" vertex="1" parent="1">
            <mxGeometry x="355" y="320" width="70" height="130" as="geometry" />
          </mxCell>
        </object>
        <mxCell id="_NSQsEMBnyyuoNphyygk-13" value="RegFile" style="text;html=1;strokeColor=none;fillColor=none;align=center;verticalAlign=middle;whiteSpace=wrap;rounded=0;" vertex="1" parent="1">
          <mxGeometry x="360" y="320" width="60" height="30" as="geometry" />
        </mxCell>
        <object label="" PC="PC" id="_NSQsEMBnyyuoNphyygk-14">
          <mxCell style="verticalLabelPosition=bottom;verticalAlign=top;html=1;shape=mxgraph.basic.rect;fillColor2=none;strokeWidth=1;size=20;indent=0;" vertex="1" parent="1">
            <mxGeometry x="490" y="240" width="20" height="280" as="geometry" />
          </mxCell>
        </object>
        <mxCell id="_NSQsEMBnyyuoNphyygk-15" value="ID/EX" style="text;html=1;strokeColor=none;fillColor=none;align=center;verticalAlign=middle;whiteSpace=wrap;rounded=0;" vertex="1" parent="1">
          <mxGeometry x="480" y="210" width="40" height="30" as="geometry" />
        </mxCell>
        <mxCell id="_NSQsEMBnyyuoNphyygk-16" value="" style="rounded=0;whiteSpace=wrap;html=1;" vertex="1" parent="1">
          <mxGeometry x="590" y="280" width="90" height="50" as="geometry" />
        </mxCell>
        <mxCell id="_NSQsEMBnyyuoNphyygk-17" value="Branch Comp" style="text;html=1;strokeColor=none;fillColor=none;align=center;verticalAlign=middle;whiteSpace=wrap;rounded=0;" vertex="1" parent="1">
          <mxGeometry x="615" y="290" width="40" height="30" as="geometry" />
        </mxCell>
        <mxCell id="_NSQsEMBnyyuoNphyygk-18" value="" style="rounded=0;whiteSpace=wrap;html=1;" vertex="1" parent="1">
          <mxGeometry x="345" y="470" width="90" height="50" as="geometry" />
        </mxCell>
        <mxCell id="_NSQsEMBnyyuoNphyygk-19" value="IMM Gen" style="text;html=1;strokeColor=none;fillColor=none;align=center;verticalAlign=middle;whiteSpace=wrap;rounded=0;" vertex="1" parent="1">
          <mxGeometry x="355" y="480" width="55" height="30" as="geometry" />
        </mxCell>
        <mxCell id="_NSQsEMBnyyuoNphyygk-20" value="" style="rounded=0;whiteSpace=wrap;html=1;" vertex="1" parent="1">
          <mxGeometry x="345" y="230" width="90" height="50" as="geometry" />
        </mxCell>
        <mxCell id="_NSQsEMBnyyuoNphyygk-21" value="DeCompressor" style="text;html=1;strokeColor=none;fillColor=none;align=center;verticalAlign=middle;whiteSpace=wrap;rounded=0;" vertex="1" parent="1">
          <mxGeometry x="370" y="240" width="40" height="30" as="geometry" />
        </mxCell>
        <mxCell id="_NSQsEMBnyyuoNphyygk-22" value="" style="shape=trapezoid;perimeter=trapezoidPerimeter;whiteSpace=wrap;html=1;fixedSize=1;rotation=90;" vertex="1" parent="1">
          <mxGeometry x="730" y="290" width="120" height="40" as="geometry" />
        </mxCell>
        <mxCell id="_NSQsEMBnyyuoNphyygk-23" value="ALU" style="text;html=1;strokeColor=none;fillColor=none;align=center;verticalAlign=middle;whiteSpace=wrap;rounded=0;" vertex="1" parent="1">
          <mxGeometry x="770" y="290" width="40" height="30" as="geometry" />
        </mxCell>
        <object label="" PC="PC" id="_NSQsEMBnyyuoNphyygk-24">
          <mxCell style="verticalLabelPosition=bottom;verticalAlign=top;html=1;shape=mxgraph.basic.rect;fillColor2=none;strokeWidth=1;size=20;indent=0;" vertex="1" parent="1">
            <mxGeometry x="900" y="240" width="20" height="280" as="geometry" />
          </mxCell>
        </object>
        <mxCell id="_NSQsEMBnyyuoNphyygk-25" value="EX/MEM" style="text;html=1;strokeColor=none;fillColor=none;align=center;verticalAlign=middle;whiteSpace=wrap;rounded=0;" vertex="1" parent="1">
          <mxGeometry x="890" y="210" width="40" height="30" as="geometry" />
        </mxCell>
        <object label="" PC="PC" id="_NSQsEMBnyyuoNphyygk-26">
          <mxCell style="verticalLabelPosition=bottom;verticalAlign=top;html=1;shape=mxgraph.basic.rect;fillColor2=none;strokeWidth=1;size=20;indent=0;" vertex="1" parent="1">
            <mxGeometry x="990" y="280" width="70" height="130" as="geometry" />
          </mxCell>
        </object>
        <mxCell id="_NSQsEMBnyyuoNphyygk-27" value="Data&lt;br&gt;Memory" style="text;html=1;strokeColor=none;fillColor=none;align=center;verticalAlign=middle;whiteSpace=wrap;rounded=0;" vertex="1" parent="1">
          <mxGeometry x="990" y="290" width="60" height="30" as="geometry" />
        </mxCell>
        <object label="" PC="PC" id="_NSQsEMBnyyuoNphyygk-28">
          <mxCell style="verticalLabelPosition=bottom;verticalAlign=top;html=1;shape=mxgraph.basic.rect;fillColor2=none;strokeWidth=1;size=20;indent=0;" vertex="1" parent="1">
            <mxGeometry x="1160" y="240" width="20" height="280" as="geometry" />
          </mxCell>
        </object>
        <mxCell id="_NSQsEMBnyyuoNphyygk-29" value="MEM/WB" style="text;html=1;strokeColor=none;fillColor=none;align=center;verticalAlign=middle;whiteSpace=wrap;rounded=0;" vertex="1" parent="1">
          <mxGeometry x="1150" y="210" width="40" height="30" as="geometry" />
        </mxCell>
        <mxCell id="_NSQsEMBnyyuoNphyygk-31" value="" style="shape=table;startSize=0;container=1;collapsible=0;childLayout=tableLayout;fontSize=16;" vertex="1" parent="1">
          <mxGeometry x="210" y="60" width="508" height="20" as="geometry" />
        </mxCell>
        <mxCell id="_NSQsEMBnyyuoNphyygk-32" value="" style="shape=tableRow;horizontal=0;startSize=0;swimlaneHead=0;swimlaneBody=0;strokeColor=inherit;top=0;left=0;bottom=0;right=0;collapsible=0;dropTarget=0;fillColor=none;points=[[0,0.5],[1,0.5]];portConstraint=eastwest;fontSize=16;" vertex="1" parent="_NSQsEMBnyyuoNphyygk-31">
          <mxGeometry width="508" height="20" as="geometry" />
        </mxCell>
        <mxCell id="_NSQsEMBnyyuoNphyygk-33" value="&lt;span style=&quot;font-size: 12px;&quot;&gt;ASel&lt;/span&gt;" style="shape=partialRectangle;html=1;whiteSpace=wrap;connectable=0;strokeColor=inherit;overflow=hidden;fillColor=none;top=0;left=0;bottom=0;right=0;pointerEvents=1;fontSize=16;" vertex="1" parent="_NSQsEMBnyyuoNphyygk-32">
          <mxGeometry width="64" height="20" as="geometry">
            <mxRectangle width="64" height="20" as="alternateBounds" />
          </mxGeometry>
        </mxCell>
        <mxCell id="_NSQsEMBnyyuoNphyygk-44" value="BSel" style="shape=partialRectangle;html=1;whiteSpace=wrap;connectable=0;strokeColor=inherit;overflow=hidden;fillColor=none;top=0;left=0;bottom=0;right=0;pointerEvents=1;fontSize=16;" vertex="1" parent="_NSQsEMBnyyuoNphyygk-32">
          <mxGeometry x="64" width="62" height="20" as="geometry">
            <mxRectangle width="62" height="20" as="alternateBounds" />
          </mxGeometry>
        </mxCell>
        <mxCell id="_NSQsEMBnyyuoNphyygk-45" value="ALUSel" style="shape=partialRectangle;html=1;whiteSpace=wrap;connectable=0;strokeColor=inherit;overflow=hidden;fillColor=none;top=0;left=0;bottom=0;right=0;pointerEvents=1;fontSize=16;" vertex="1" parent="_NSQsEMBnyyuoNphyygk-32">
          <mxGeometry x="126" width="64" height="20" as="geometry">
            <mxRectangle width="64" height="20" as="alternateBounds" />
          </mxGeometry>
        </mxCell>
        <mxCell id="_NSQsEMBnyyuoNphyygk-46" value="ImmSel" style="shape=partialRectangle;html=1;whiteSpace=wrap;connectable=0;strokeColor=inherit;overflow=hidden;fillColor=none;top=0;left=0;bottom=0;right=0;pointerEvents=1;fontSize=16;" vertex="1" parent="_NSQsEMBnyyuoNphyygk-32">
          <mxGeometry x="190" width="64" height="20" as="geometry">
            <mxRectangle width="64" height="20" as="alternateBounds" />
          </mxGeometry>
        </mxCell>
        <mxCell id="_NSQsEMBnyyuoNphyygk-34" value="BrUn" style="shape=partialRectangle;html=1;whiteSpace=wrap;connectable=0;strokeColor=inherit;overflow=hidden;fillColor=none;top=0;left=0;bottom=0;right=0;pointerEvents=1;fontSize=16;" vertex="1" parent="_NSQsEMBnyyuoNphyygk-32">
          <mxGeometry x="254" width="62" height="20" as="geometry">
            <mxRectangle width="62" height="20" as="alternateBounds" />
          </mxGeometry>
        </mxCell>
        <mxCell id="_NSQsEMBnyyuoNphyygk-35" value="RegWEn" style="shape=partialRectangle;html=1;whiteSpace=wrap;connectable=0;strokeColor=inherit;overflow=hidden;fillColor=none;top=0;left=0;bottom=0;right=0;pointerEvents=1;fontSize=16;" vertex="1" parent="_NSQsEMBnyyuoNphyygk-32">
          <mxGeometry x="316" width="64" height="20" as="geometry">
            <mxRectangle width="64" height="20" as="alternateBounds" />
          </mxGeometry>
        </mxCell>
        <mxCell id="_NSQsEMBnyyuoNphyygk-49" value="MemRW" style="shape=partialRectangle;html=1;whiteSpace=wrap;connectable=0;strokeColor=inherit;overflow=hidden;fillColor=none;top=0;left=0;bottom=0;right=0;pointerEvents=1;fontSize=16;" vertex="1" parent="_NSQsEMBnyyuoNphyygk-32">
          <mxGeometry x="380" width="64" height="20" as="geometry">
            <mxRectangle width="64" height="20" as="alternateBounds" />
          </mxGeometry>
        </mxCell>
        <mxCell id="_NSQsEMBnyyuoNphyygk-48" style="shape=partialRectangle;html=1;whiteSpace=wrap;connectable=0;strokeColor=inherit;overflow=hidden;fillColor=none;top=0;left=0;bottom=0;right=0;pointerEvents=1;fontSize=16;" vertex="1" parent="_NSQsEMBnyyuoNphyygk-32">
          <mxGeometry x="444" width="64" height="20" as="geometry">
            <mxRectangle width="64" height="20" as="alternateBounds" />
          </mxGeometry>
        </mxCell>
      </root>
    </mxGraphModel>
  </diagram>
</mxfile>
